<svg width="50" height="50" viewBox="0 0 50 50" fill="none" xmlns="http://www.w3.org/2000/svg">
<circle cx="25" cy="25" r="25" fill="url(#paint0_linear_147_690)"/>
<mask id="path-2-outside-1_147_690" maskUnits="userSpaceOnUse" x="18.0779" y="10" width="14" height="29" fill="black">
<rect fill="white" x="18.0779" y="10" width="14" height="29"/>
<path fill-rule="evenodd" clip-rule="evenodd" d="M22.9068 12L22.9068 15.3508H23.0132V20.1381C21.128 20.9802 19.8803 22.9631 20.1037 25.1639L21.3053 37.0001H28.7893L29.9613 25.1512C30.1784 22.9569 28.934 20.9821 27.0558 20.1404V15.3508H27.1623V12H22.9068Z"/>
</mask>
<path d="M22.9068 15.3508H21.6068L21.6068 16.6508H22.9068V15.3508ZM22.9068 12V10.7H21.6068L21.6068 12L22.9068 12ZM23.0132 15.3508H24.3132V14.0508H23.0132V15.3508ZM23.0132 20.1381L23.5434 21.325L24.3132 20.9811V20.1381H23.0132ZM20.1037 25.1639L18.8104 25.2952L20.1037 25.1639ZM21.3053 37.0001L20.012 37.1314L20.1306 38.3001H21.3053V37.0001ZM28.7893 37.0001V38.3001H29.967L30.0829 37.128L28.7893 37.0001ZM29.9613 25.1512L28.6676 25.0233V25.0233L29.9613 25.1512ZM27.0558 20.1404H25.7558V20.9824L26.5242 21.3268L27.0558 20.1404ZM27.0558 15.3508V14.0508H25.7558V15.3508H27.0558ZM27.1623 15.3508V16.6508H28.4623V15.3508H27.1623ZM27.1623 12H28.4623V10.7H27.1623V12ZM24.2068 15.3508V12L21.6068 12L21.6068 15.3508H24.2068ZM23.0132 14.0508H22.9068V16.6508H23.0132V14.0508ZM21.7132 15.3508V20.1381H24.3132V15.3508H21.7132ZM22.4829 18.9511C20.1066 20.0127 18.528 22.5139 18.8104 25.2952L21.3971 25.0326C21.2326 23.4122 22.1495 21.9477 23.5434 21.325L22.4829 18.9511ZM18.8104 25.2952L20.012 37.1314L22.5987 36.8688L21.3971 25.0326L18.8104 25.2952ZM21.3053 38.3001H28.7893V35.7001H21.3053V38.3001ZM30.0829 37.128L31.255 25.2792L28.6676 25.0233L27.4956 36.8721L30.0829 37.128ZM31.255 25.2792C31.5293 22.5061 29.9551 20.0151 27.5874 18.9541L26.5242 21.3268C27.913 21.9491 28.8274 23.4076 28.6676 25.0233L31.255 25.2792ZM28.3558 20.1404V15.3508H25.7558V20.1404H28.3558ZM27.1623 14.0508H27.0558V16.6508H27.1623V14.0508ZM25.8623 12V15.3508H28.4623V12H25.8623ZM22.9068 13.3H27.1623V10.7H22.9068V13.3Z" fill="white" mask="url(#path-2-outside-1_147_690)"/>
<defs>
<linearGradient id="paint0_linear_147_690" x1="7.5" y1="-2.95043e-07" x2="36.5" y2="50" gradientUnits="userSpaceOnUse">
<stop stop-color="#C6B787"/>
<stop offset="0.520833" stop-color="#483A14"/>
<stop offset="1" stop-color="#C6B787"/>
</linearGradient>
</defs>
</svg>
