<svg width="19" height="11" viewBox="0 0 19 11" fill="none" xmlns="http://www.w3.org/2000/svg">
<path d="M18.0322 2.71555L10.2185 10.5525C10.1254 10.6456 10.0247 10.7113 9.91614 10.7497C9.80762 10.7888 9.69134 10.8083 9.56731 10.8083C9.44329 10.8083 9.32701 10.7888 9.21849 10.7497C9.10996 10.7113 9.00919 10.6456 8.91617 10.5525L1.07917 2.71555C0.862125 2.4985 0.753601 2.22719 0.753601 1.90162C0.753601 1.57605 0.869877 1.29698 1.10243 1.06443C1.33498 0.83188 1.60629 0.715604 1.91636 0.715604C2.22643 0.715604 2.49774 0.83188 2.73029 1.06443L9.56731 7.90145L16.4043 1.06443C16.6214 0.847383 16.8887 0.738858 17.2062 0.738858C17.5243 0.738858 17.7996 0.855134 18.0322 1.08769C18.2647 1.32024 18.381 1.59155 18.381 1.90162C18.381 2.21169 18.2647 2.483 18.0322 2.71555Z" fill="#483A14"/>
</svg>
