<svg width="16" height="16" viewBox="0 0 16 16" fill="none" xmlns="http://www.w3.org/2000/svg">
<path d="M0.5 3C0.5 2.60218 0.658035 2.22064 0.93934 1.93934C1.22064 1.65804 1.60218 1.5 2 1.5H14C14.3978 1.5 14.7794 1.65804 15.0607 1.93934C15.342 2.22064 15.5 2.60218 15.5 3V4.208L8 8.426L0.5 4.208V3Z" fill="#483A14"/>
<path d="M0.5 5.355V13C0.5 13.3978 0.658035 13.7794 0.93934 14.0607C1.22064 14.342 1.60218 14.5 2 14.5H14C14.3978 14.5 14.7794 14.342 15.0607 14.0607C15.342 13.7794 15.5 13.3978 15.5 13V5.355L8 9.574L0.5 5.354V5.355Z" fill="#483A14"/>
</svg>
