<svg width="189" height="2" viewBox="0 0 189 2" fill="none" xmlns="http://www.w3.org/2000/svg">
<path fill-rule="evenodd" clip-rule="evenodd" d="M0.78434 0.431152C0.351161 0.431152 0 0.782313 0 1.21549C0 1.64867 0.351161 1.99983 0.78434 1.99983H0.976813C1.40999 1.99983 1.76115 1.64867 1.76115 1.21549C1.76115 0.782313 1.40999 0.431152 0.976813 0.431152H0.78434ZM4.05638 0.431152C3.6232 0.431152 3.27204 0.782313 3.27204 1.21549C3.27204 1.64867 3.6232 1.99983 4.05638 1.99983H4.44132C4.8745 1.99983 5.22566 1.64867 5.22566 1.21549C5.22566 0.782313 4.8745 0.431152 4.44132 0.431152H4.05638ZM7.52088 0.431152C7.0877 0.431152 6.73654 0.782313 6.73654 1.21549C6.73654 1.64867 7.0877 1.99983 7.52088 1.99983H7.90583C8.33901 1.99983 8.69017 1.64867 8.69017 1.21549C8.69017 0.782313 8.33901 0.431152 7.90583 0.431152H7.52088ZM10.9854 0.431152C10.5522 0.431152 10.2011 0.782313 10.2011 1.21549C10.2011 1.64867 10.5522 1.99983 10.9854 1.99983H11.3703C11.8035 1.99983 12.1547 1.64867 12.1547 1.21549C12.1547 0.782313 11.8035 0.431152 11.3703 0.431152H10.9854ZM14.4499 0.431152C14.0167 0.431152 13.6656 0.782313 13.6656 1.21549C13.6656 1.64867 14.0167 1.99983 14.4499 1.99983H14.8348C15.268 1.99983 15.6192 1.64867 15.6192 1.21549C15.6192 0.782313 15.268 0.431152 14.8348 0.431152H14.4499ZM17.9144 0.431152C17.4812 0.431152 17.1301 0.782313 17.1301 1.21549C17.1301 1.64867 17.4812 1.99983 17.9144 1.99983H18.2994C18.7325 1.99983 19.0837 1.64867 19.0837 1.21549C19.0837 0.782313 18.7325 0.431152 18.2994 0.431152H17.9144ZM21.3789 0.431152C20.9457 0.431152 20.5946 0.782313 20.5946 1.21549C20.5946 1.64867 20.9457 1.99983 21.3789 1.99983H21.7639C22.197 1.99983 22.5482 1.64867 22.5482 1.21549C22.5482 0.782313 22.197 0.431152 21.7639 0.431152H21.3789ZM24.8434 0.431152C24.4102 0.431152 24.0591 0.782313 24.0591 1.21549C24.0591 1.64867 24.4102 1.99983 24.8434 1.99983H25.2284C25.6615 1.99983 26.0127 1.64867 26.0127 1.21549C26.0127 0.782313 25.6615 0.431152 25.2284 0.431152H24.8434ZM28.3079 0.431152C27.8748 0.431152 27.5236 0.782313 27.5236 1.21549C27.5236 1.64867 27.8748 1.99983 28.3079 1.99983H28.6929C29.1261 1.99983 29.4772 1.64867 29.4772 1.21549C29.4772 0.782313 29.1261 0.431152 28.6929 0.431152H28.3079ZM31.7724 0.431152C31.3393 0.431152 30.9881 0.782313 30.9881 1.21549C30.9881 1.64867 31.3393 1.99983 31.7724 1.99983H32.1574C32.5906 1.99983 32.9417 1.64867 32.9417 1.21549C32.9417 0.782313 32.5906 0.431152 32.1574 0.431152H31.7724ZM35.2369 0.431152C34.8038 0.431152 34.4526 0.782313 34.4526 1.21549C34.4526 1.64867 34.8038 1.99983 35.2369 1.99983H35.6219C36.0551 1.99983 36.4062 1.64867 36.4062 1.21549C36.4062 0.782313 36.0551 0.431152 35.6219 0.431152H35.2369ZM38.7015 0.431152C38.2683 0.431152 37.9171 0.782313 37.9171 1.21549C37.9171 1.64867 38.2683 1.99983 38.7015 1.99983H39.0864C39.5196 1.99983 39.8707 1.64867 39.8707 1.21549C39.8707 0.782313 39.5196 0.431152 39.0864 0.431152H38.7015ZM42.166 0.431152C41.7328 0.431152 41.3816 0.782313 41.3816 1.21549C41.3816 1.64867 41.7328 1.99983 42.166 1.99983H42.5509C42.9841 1.99983 43.3352 1.64867 43.3352 1.21549C43.3352 0.782313 42.9841 0.431152 42.5509 0.431152H42.166ZM45.6305 0.431152C45.1973 0.431152 44.8461 0.782313 44.8461 1.21549C44.8461 1.64867 45.1973 1.99983 45.6305 1.99983H46.0154C46.4486 1.99983 46.7998 1.64867 46.7998 1.21549C46.7998 0.782313 46.4486 0.431152 46.0154 0.431152H45.6305ZM49.095 0.431152C48.6618 0.431152 48.3106 0.782313 48.3106 1.21549C48.3106 1.64867 48.6618 1.99983 49.095 1.99983H49.4799C49.9131 1.99983 50.2643 1.64867 50.2643 1.21549C50.2643 0.782313 49.9131 0.431152 49.4799 0.431152H49.095ZM52.5595 0.431152C52.1263 0.431152 51.7751 0.782313 51.7751 1.21549C51.7751 1.64867 52.1263 1.99983 52.5595 1.99983H52.9444C53.3776 1.99983 53.7288 1.64867 53.7288 1.21549C53.7288 0.782313 53.3776 0.431152 52.9444 0.431152H52.5595ZM56.024 0.431152C55.5908 0.431152 55.2397 0.782313 55.2397 1.21549C55.2397 1.64867 55.5908 1.99983 56.024 1.99983H56.4089C56.8421 1.99983 57.1933 1.64867 57.1933 1.21549C57.1933 0.782313 56.8421 0.431152 56.4089 0.431152H56.024ZM59.4885 0.431152C59.0553 0.431152 58.7042 0.782313 58.7042 1.21549C58.7042 1.64867 59.0553 1.99983 59.4885 1.99983H59.8734C60.3066 1.99983 60.6578 1.64867 60.6578 1.21549C60.6578 0.782313 60.3066 0.431152 59.8734 0.431152H59.4885ZM62.953 0.431152C62.5198 0.431152 62.1687 0.782313 62.1687 1.21549C62.1687 1.64867 62.5198 1.99983 62.953 1.99983H63.1455C63.5787 1.99983 63.9298 1.64867 63.9298 1.21549C63.9298 0.782313 63.5787 0.431152 63.1455 0.431152H62.953ZM125.647 0.431152C125.214 0.431152 124.863 0.782313 124.863 1.21549C124.863 1.64867 125.214 1.99983 125.647 1.99983H125.84C126.273 1.99983 126.624 1.64867 126.624 1.21549C126.624 0.782313 126.273 0.431152 125.84 0.431152H125.647ZM128.919 0.431152C128.486 0.431152 128.135 0.782313 128.135 1.21549C128.135 1.64867 128.486 1.99983 128.919 1.99983H129.304C129.737 1.99983 130.089 1.64867 130.089 1.21549C130.089 0.782313 129.737 0.431152 129.304 0.431152H128.919ZM132.384 0.431152C131.951 0.431152 131.599 0.782313 131.599 1.21549C131.599 1.64867 131.951 1.99983 132.384 1.99983H132.769C133.202 1.99983 133.553 1.64867 133.553 1.21549C133.553 0.782313 133.202 0.431152 132.769 0.431152H132.384ZM135.848 0.431152C135.415 0.431152 135.064 0.782313 135.064 1.21549C135.064 1.64867 135.415 1.99983 135.848 1.99983H136.233C136.666 1.99983 137.018 1.64867 137.018 1.21549C137.018 0.782313 136.666 0.431152 136.233 0.431152H135.848ZM139.313 0.431152C138.88 0.431152 138.528 0.782313 138.528 1.21549C138.528 1.64867 138.88 1.99983 139.313 1.99983H139.698C140.131 1.99983 140.482 1.64867 140.482 1.21549C140.482 0.782313 140.131 0.431152 139.698 0.431152H139.313ZM142.777 0.431152C142.344 0.431152 141.993 0.782313 141.993 1.21549C141.993 1.64867 142.344 1.99983 142.777 1.99983H143.162C143.595 1.99983 143.947 1.64867 143.947 1.21549C143.947 0.782313 143.595 0.431152 143.162 0.431152H142.777ZM146.242 0.431152C145.809 0.431152 145.457 0.782313 145.457 1.21549C145.457 1.64867 145.809 1.99983 146.242 1.99983H146.627C147.06 1.99983 147.411 1.64867 147.411 1.21549C147.411 0.782313 147.06 0.431152 146.627 0.431152H146.242ZM149.706 0.431152C149.273 0.431152 148.922 0.782313 148.922 1.21549C148.922 1.64867 149.273 1.99983 149.706 1.99983H150.091C150.524 1.99983 150.876 1.64867 150.876 1.21549C150.876 0.782313 150.524 0.431152 150.091 0.431152H149.706ZM153.171 0.431152C152.738 0.431152 152.386 0.782313 152.386 1.21549C152.386 1.64867 152.738 1.99983 153.171 1.99983H153.556C153.989 1.99983 154.34 1.64867 154.34 1.21549C154.34 0.782313 153.989 0.431152 153.556 0.431152H153.171ZM156.635 0.431152C156.202 0.431152 155.851 0.782313 155.851 1.21549C155.851 1.64867 156.202 1.99983 156.635 1.99983H157.02C157.453 1.99983 157.805 1.64867 157.805 1.21549C157.805 0.782313 157.453 0.431152 157.02 0.431152H156.635ZM160.1 0.431152C159.667 0.431152 159.315 0.782313 159.315 1.21549C159.315 1.64867 159.667 1.99983 160.1 1.99983H160.485C160.918 1.99983 161.269 1.64867 161.269 1.21549C161.269 0.782313 160.918 0.431152 160.485 0.431152H160.1ZM163.564 0.431152C163.131 0.431152 162.78 0.782313 162.78 1.21549C162.78 1.64867 163.131 1.99983 163.564 1.99983H163.949C164.382 1.99983 164.734 1.64867 164.734 1.21549C164.734 0.782313 164.382 0.431152 163.949 0.431152H163.564ZM167.029 0.431152C166.596 0.431152 166.244 0.782313 166.244 1.21549C166.244 1.64867 166.596 1.99983 167.029 1.99983H167.414C167.847 1.99983 168.198 1.64867 168.198 1.21549C168.198 0.782313 167.847 0.431152 167.414 0.431152H167.029ZM170.493 0.431152C170.06 0.431152 169.709 0.782313 169.709 1.21549C169.709 1.64867 170.06 1.99983 170.493 1.99983H170.878C171.311 1.99983 171.663 1.64867 171.663 1.21549C171.663 0.782313 171.311 0.431152 170.878 0.431152H170.493ZM173.958 0.431152C173.525 0.431152 173.173 0.782313 173.173 1.21549C173.173 1.64867 173.525 1.99983 173.958 1.99983H174.343C174.776 1.99983 175.127 1.64867 175.127 1.21549C175.127 0.782313 174.776 0.431152 174.343 0.431152H173.958ZM177.422 0.431152C176.989 0.431152 176.638 0.782313 176.638 1.21549C176.638 1.64867 176.989 1.99983 177.422 1.99983H177.807C178.24 1.99983 178.592 1.64867 178.592 1.21549C178.592 0.782313 178.24 0.431152 177.807 0.431152H177.422ZM180.887 0.431152C180.454 0.431152 180.103 0.782313 180.103 1.21549C180.103 1.64867 180.454 1.99983 180.887 1.99983H181.272C181.705 1.99983 182.056 1.64867 182.056 1.21549C182.056 0.782313 181.705 0.431152 181.272 0.431152H180.887ZM184.351 0.431152C183.918 0.431152 183.567 0.782313 183.567 1.21549C183.567 1.64867 183.918 1.99983 184.351 1.99983H184.736C185.169 1.99983 185.521 1.64867 185.521 1.21549C185.521 0.782313 185.169 0.431152 184.736 0.431152H184.351ZM187.816 0.431152C187.383 0.431152 187.032 0.782313 187.032 1.21549C187.032 1.64867 187.383 1.99983 187.816 1.99983H188.008C188.441 1.99983 188.793 1.64867 188.793 1.21549C188.793 0.782313 188.441 0.431152 188.008 0.431152H187.816Z" fill="#9F9F9F"/>
</svg>
