<svg width="15" height="16" viewBox="0 0 15 16" fill="none" xmlns="http://www.w3.org/2000/svg">
<path d="M7.49984 13.6667C10.6307 13.6667 13.1665 11.1309 13.1665 8.00008C13.1665 4.86925 10.6307 2.33341 7.49984 2.33341C4.369 2.33341 1.83317 4.86925 1.83317 8.00008C1.83317 11.1309 4.369 13.6667 7.49984 13.6667ZM7.49984 0.916748C11.3957 0.916748 14.5832 4.10425 14.5832 8.00008C14.5832 11.8959 11.3957 15.0834 7.49984 15.0834C3.58275 15.0834 0.416504 11.8959 0.416504 8.00008C0.416504 4.10425 3.604 0.916748 7.49984 0.916748ZM7.854 8.70842H6.7915V4.45842H7.854V7.47592L10.4748 5.96716L11.0061 6.888L7.854 8.70842Z" fill="#9D9D9D"/>
</svg>
