<svg width="220" height="43" viewBox="0 0 220 43" fill="none" xmlns="http://www.w3.org/2000/svg">
<path d="M20.5437 1.37013C20.5437 1.09386 20.8333 0.913197 21.0814 1.03465L26.3106 3.59389C26.4387 3.65659 26.5199 3.78676 26.5199 3.92938V39.5432C26.5199 39.6823 26.4426 39.8099 26.3193 39.8743L21.0901 42.6041C20.8414 42.7339 20.5437 42.5535 20.5437 42.273V1.37013Z" fill="#F8F8F8"/>
<path d="M16.8081 1.37013C16.8081 1.09386 16.5185 0.913197 16.2704 1.03465L11.0412 3.59389C10.9131 3.65659 10.8319 3.78676 10.8319 3.92938V39.5432C10.8319 39.6823 10.9092 39.8099 11.0325 39.8743L16.2617 42.6041C16.5104 42.7339 16.8081 42.5535 16.8081 42.273V1.37013Z" fill="white"/>
<path d="M31.3752 5.37238C31.3752 5.11215 31.6347 4.93168 31.8787 5.02218L37.1079 6.96182C37.2543 7.01613 37.3515 7.15583 37.3515 7.31202V35.9938C37.3515 36.1427 37.263 36.2774 37.1263 36.3366L31.8971 38.5995C31.6505 38.7062 31.3752 38.5254 31.3752 38.2567V5.37238Z" fill="#F8F8F8"/>
<path d="M5.97656 5.37238C5.97656 5.11215 5.71713 4.93168 5.47315 5.02218L0.243949 6.96182C0.0975113 7.01613 0.000331402 7.15583 0.000331402 7.31202V35.9938C0.000331402 36.1427 0.0888147 36.2774 0.225503 36.3366L5.45471 38.5995C5.70132 38.7062 5.97656 38.5254 5.97656 38.2567V5.37238Z" fill="white"/>
<path d="M48.9884 32.4829V10.4253H57.0037C59.4062 10.4253 61.4152 10.9224 63.0307 11.9165C64.6462 12.89 65.8578 14.2155 66.6655 15.8931C67.4733 17.55 67.8772 19.3933 67.8772 21.4231C67.8772 23.6599 67.4319 25.6067 66.5413 27.2637C65.6507 28.9206 64.3873 30.2047 62.7511 31.116C61.1356 32.0273 59.2198 32.4829 57.0037 32.4829H48.9884ZM63.5588 21.4231C63.5588 19.994 63.2999 18.7409 62.7822 17.6639C62.2644 16.5662 61.5188 15.7171 60.5453 15.1165C59.5719 14.4951 58.3914 14.1844 57.0037 14.1844H53.2757V28.7238H57.0037C58.4121 28.7238 59.603 28.4131 60.5764 27.7918C61.5498 27.1497 62.2851 26.2799 62.7822 25.1822C63.2999 24.0637 63.5588 22.8107 63.5588 21.4231ZM86.5428 28.7238V32.4829H71.2268V10.4253H86.2632V14.1844H75.5141V19.4969H84.8031V22.9764H75.5141V28.7238H86.5428ZM103.027 16.2038C102.882 16.0588 102.612 15.8621 102.219 15.6135C101.846 15.365 101.38 15.1268 100.821 14.899C100.282 14.6712 99.692 14.4744 99.05 14.3087C98.4079 14.1223 97.7555 14.0291 97.0928 14.0291C95.9329 14.0291 95.0527 14.2466 94.4521 14.6815C93.8722 15.1164 93.5822 15.7274 93.5822 16.5145C93.5822 17.1151 93.7686 17.5915 94.1414 17.9435C94.5142 18.2956 95.0734 18.596 95.819 18.8445C96.5646 19.093 97.4966 19.3623 98.615 19.6522C100.065 20.0043 101.318 20.4393 102.374 20.957C103.451 21.4541 104.269 22.1169 104.828 22.9453C105.408 23.7531 105.698 24.8301 105.698 26.1763C105.698 27.3569 105.481 28.3717 105.046 29.2209C104.611 30.0493 104.01 30.7224 103.244 31.2402C102.478 31.758 101.608 32.1412 100.634 32.3897C99.661 32.6175 98.6254 32.7314 97.5277 32.7314C96.43 32.7314 95.3323 32.6175 94.2346 32.3897C93.1369 32.1619 92.0806 31.8409 91.0658 31.4266C90.0509 30.9917 89.1189 30.4739 88.2697 29.8733L90.1648 26.1763C90.3512 26.3627 90.6826 26.6112 91.159 26.9219C91.6353 27.2119 92.2152 27.5122 92.8987 27.8229C93.5822 28.1128 94.3278 28.3614 95.1355 28.5685C95.9433 28.7756 96.7614 28.8791 97.5898 28.8791C98.7497 28.8791 99.6299 28.6824 100.231 28.2889C100.831 27.8953 101.131 27.3361 101.131 26.6112C101.131 25.9485 100.893 25.4307 100.417 25.0579C99.9406 24.6851 99.2778 24.3641 98.4286 24.0948C97.5795 23.8049 96.575 23.4942 95.4151 23.1628C94.0275 22.7693 92.8676 22.3344 91.9356 21.858C91.0036 21.3609 90.3098 20.7396 89.8541 19.994C89.3985 19.2484 89.1707 18.3164 89.1707 17.1979C89.1707 15.686 89.5228 14.4226 90.227 13.4078C90.9519 12.3722 91.9253 11.5955 93.1473 11.0777C94.3692 10.5392 95.7258 10.27 97.217 10.27C98.2526 10.27 99.226 10.3839 100.137 10.6117C101.069 10.8396 101.939 11.1399 102.747 11.5127C103.555 11.8855 104.28 12.2894 104.922 12.7243L103.027 16.2038ZM125.435 14.1844H118.382V32.4829H114.126V14.1844H107.074V10.4253H125.435V14.1844ZM128.173 32.4829V10.4253H132.46V32.4829H128.173ZM137.062 32.4829V10.4253H141.349V28.7238H152.596V32.4829H137.062ZM155.205 32.4829V10.4253H159.492V32.4829H155.205ZM164.094 32.4829V10.4253H173.849C174.864 10.4253 175.796 10.6324 176.645 11.0467C177.515 11.4609 178.261 12.0201 178.882 12.7243C179.524 13.4285 180.011 14.2155 180.342 15.0854C180.694 15.9553 180.87 16.8458 180.87 17.7571C180.87 18.6892 180.705 19.5901 180.373 20.46C180.063 21.3091 179.607 22.0547 179.006 22.6968C178.406 23.3389 177.701 23.8359 176.894 24.188L181.927 32.4829H177.204L172.669 25.089H168.381V32.4829H164.094ZM168.381 21.3299H173.756C174.294 21.3299 174.771 21.1745 175.185 20.8638C175.599 20.5325 175.931 20.0975 176.179 19.559C176.428 19.0205 176.552 18.4199 176.552 17.7571C176.552 17.053 176.407 16.442 176.117 15.9242C175.827 15.3857 175.454 14.9611 174.999 14.6504C174.564 14.3398 174.087 14.1844 173.57 14.1844H168.381V21.3299ZM190.751 10.4253H195.1L203.209 32.4829H198.797L196.747 26.984H189.042L187.023 32.4829H182.611L190.751 10.4253ZM195.97 23.9705L192.926 14.8679L189.757 23.9705H195.97ZM204.51 27.9782C204.779 28.1646 205.255 28.3924 205.939 28.6617C206.622 28.9102 207.43 29.0345 208.362 29.0345C209.17 29.0345 209.832 28.8998 210.35 28.6306C210.868 28.3406 211.262 27.9161 211.531 27.3569C211.821 26.7976 212.007 26.0728 212.09 25.1822C212.194 24.2916 212.245 23.2249 212.245 21.9823V10.4253H216.533V21.6405C216.533 23.2974 216.439 24.8094 216.253 26.1763C216.067 27.5433 215.704 28.7238 215.166 29.7179C214.627 30.7121 213.809 31.4784 212.711 32.0169C211.634 32.5554 210.195 32.8246 208.393 32.8246C207.399 32.8246 206.508 32.7107 205.721 32.4829C204.934 32.2551 204.209 31.9133 203.547 31.4577L204.51 27.9782Z" fill="#F8F8F8"/>
</svg>
