<svg width="125" height="24" viewBox="0 0 125 24" fill="none" xmlns="http://www.w3.org/2000/svg">
<path d="M11.6625 0.322393C11.6625 0.172801 11.8185 0.0743414 11.9535 0.138698L14.9394 1.56171C15.0103 1.59546 15.0554 1.66694 15.0554 1.7454V21.4347C15.0554 21.5113 15.0124 21.5814 14.9441 21.6161L11.9582 23.1339C11.8228 23.2028 11.6625 23.1044 11.6625 22.9526V0.322393Z" fill="#F8F8F8"/>
<path d="M9.54309 0.322393C9.54309 0.172801 9.3871 0.0743414 9.25206 0.138698L6.26613 1.56171C6.1953 1.59546 6.15019 1.66694 6.15019 1.7454V21.4347C6.15019 21.5113 6.19319 21.5814 6.26146 21.6161L9.24739 23.1339C9.38276 23.2028 9.54309 23.1044 9.54309 22.9526V0.322393Z" fill="white"/>
<path d="M17.8124 2.53644C17.8124 2.39541 17.9524 2.29714 18.085 2.34505L21.0709 3.42354C21.1516 3.45266 21.2053 3.5292 21.2053 3.61493V19.4726C21.2053 19.5544 21.1562 19.6283 21.0808 19.6601L18.0949 20.9183C17.9608 20.9749 17.8124 20.8764 17.8124 20.7308V2.53644Z" fill="#F8F8F8"/>
<path d="M3.39294 2.53644C3.39294 2.39541 3.25297 2.29714 3.12033 2.34505L0.134402 3.42354C0.0537701 3.45266 3.98159e-05 3.5292 3.98159e-05 3.61493V19.4726C3.98159e-05 19.5544 0.049082 19.6283 0.12451 19.6601L3.11044 20.9183C3.24457 20.9749 3.39294 20.8764 3.39294 20.7308V2.53644Z" fill="white"/>
<path d="M27.7602 17.4988V5.48189H32.1269C33.4357 5.48189 34.5302 5.7527 35.4103 6.2943C36.2905 6.82462 36.9505 7.54677 37.3906 8.46073C37.8306 9.3634 38.0507 10.3676 38.0507 11.4734C38.0507 12.692 37.8081 13.7527 37.3229 14.6553C36.8377 15.558 36.1494 16.2576 35.258 16.7541C34.3779 17.2505 33.3342 17.4988 32.1269 17.4988H27.7602ZM35.6981 11.4734C35.6981 10.6949 35.557 10.0122 35.2749 9.42546C34.9929 8.82744 34.5866 8.36482 34.0563 8.0376C33.526 7.69909 32.8828 7.52984 32.1269 7.52984H30.0958V15.4508H32.1269C32.8941 15.4508 33.5429 15.2816 34.0733 14.9431C34.6036 14.5933 35.0041 14.1194 35.2749 13.5214C35.557 12.9121 35.6981 12.2294 35.6981 11.4734ZM48.2197 15.4508V17.4988H39.8756V5.48189H48.0673V7.52984H42.2112V10.424H47.2719V12.3197H42.2112V15.4508H48.2197ZM57.1999 8.62998C57.121 8.55099 56.9743 8.4438 56.7599 8.3084C56.5568 8.173 56.3029 8.04324 55.9983 7.91912C55.7049 7.795 55.3833 7.68781 55.0335 7.59754C54.6837 7.49599 54.3283 7.44521 53.9672 7.44521C53.3354 7.44521 52.8558 7.56369 52.5286 7.80064C52.2127 8.0376 52.0547 8.37046 52.0547 8.79923C52.0547 9.12645 52.1562 9.38597 52.3593 9.57779C52.5624 9.76961 52.8671 9.93322 53.2733 10.0686C53.6795 10.204 54.1873 10.3507 54.7966 10.5087C55.5864 10.7005 56.2691 10.9374 56.8445 11.2195C57.4313 11.4903 57.8769 11.8514 58.1816 12.3027C58.4975 12.7428 58.6555 13.3295 58.6555 14.063C58.6555 14.7061 58.537 15.259 58.3001 15.7216C58.0631 16.173 57.7359 16.5397 57.3184 16.8218C56.9009 17.1039 56.427 17.3126 55.8967 17.448C55.3664 17.5721 54.8022 17.6342 54.2042 17.6342C53.6062 17.6342 53.0081 17.5721 52.4101 17.448C51.8121 17.3239 51.2366 17.149 50.6837 16.9233C50.1309 16.6864 49.6231 16.4043 49.1605 16.0771L50.1929 14.063C50.2945 14.1645 50.475 14.2999 50.7345 14.4692C50.994 14.6271 51.31 14.7907 51.6823 14.96C52.0547 15.118 52.4609 15.2534 52.9009 15.3662C53.341 15.479 53.7867 15.5355 54.238 15.5355C54.8699 15.5355 55.3495 15.4283 55.6767 15.2139C56.0039 14.9995 56.1675 14.6948 56.1675 14.2999C56.1675 13.9388 56.0377 13.6568 55.7782 13.4537C55.5187 13.2506 55.1576 13.0757 54.695 12.929C54.2324 12.771 53.6851 12.6018 53.0533 12.4212C52.2973 12.2068 51.6654 11.9699 51.1576 11.7104C50.6499 11.4396 50.2719 11.1011 50.0237 10.6949C49.7754 10.2886 49.6513 9.78089 49.6513 9.17158C49.6513 8.34789 49.8431 7.6596 50.2268 7.10671C50.6217 6.54254 51.152 6.11941 51.8177 5.83732C52.4835 5.54395 53.2225 5.39727 54.0349 5.39727C54.5991 5.39727 55.1294 5.45933 55.6259 5.58344C56.1337 5.70756 56.6076 5.87117 57.0476 6.07427C57.4877 6.27738 57.8826 6.4974 58.2324 6.73436L57.1999 8.62998ZM69.4078 7.52984H65.5657V17.4988H63.247V7.52984H59.405V5.48189H69.4078V7.52984ZM70.8996 17.4988V5.48189H73.2352V17.4988H70.8996ZM75.7424 17.4988V5.48189H78.0781V15.4508H84.205V17.4988H75.7424ZM85.6265 17.4988V5.48189H87.9621V17.4988H85.6265ZM90.4693 17.4988V5.48189H95.7838C96.3367 5.48189 96.8445 5.59473 97.3071 5.8204C97.781 6.04607 98.1872 6.35072 98.5257 6.73436C98.8755 7.11799 99.1407 7.54677 99.3212 8.02067C99.513 8.49458 99.6089 8.97977 99.6089 9.47624C99.6089 9.98399 99.5187 10.4748 99.3381 10.9487C99.1689 11.4114 98.9206 11.8176 98.5934 12.1673C98.2662 12.5171 97.8825 12.7879 97.4425 12.9798L100.184 17.4988H97.6117L95.1407 13.4706H92.805V17.4988H90.4693ZM92.805 11.4226H95.733C96.0264 11.4226 96.2859 11.338 96.5116 11.1688C96.7373 10.9882 96.9178 10.7513 97.0532 10.4579C97.1886 10.1645 97.2563 9.83731 97.2563 9.47624C97.2563 9.0926 97.1773 8.75974 97.0194 8.47765C96.8614 8.18428 96.6583 7.95297 96.4101 7.78372C96.1731 7.61447 95.9136 7.52984 95.6315 7.52984H92.805V11.4226ZM104.992 5.48189H107.361L111.779 17.4988H109.375L108.258 14.503H104.061L102.961 17.4988H100.557L104.992 5.48189ZM107.835 12.8613L106.177 7.90219L104.45 12.8613H107.835ZM112.488 15.0446C112.634 15.1462 112.894 15.2703 113.266 15.417C113.638 15.5524 114.079 15.6201 114.586 15.6201C115.026 15.6201 115.387 15.5467 115.669 15.4001C115.952 15.2421 116.166 15.0108 116.313 14.7061C116.471 14.4015 116.572 14.0065 116.617 13.5214C116.674 13.0362 116.702 12.4551 116.702 11.7781V5.48189H119.038V11.5919C119.038 12.4946 118.987 13.3183 118.885 14.063C118.784 14.8077 118.586 15.4508 118.293 15.9924C118 16.534 117.554 16.9515 116.956 17.2449C116.369 17.5383 115.585 17.685 114.603 17.685C114.062 17.685 113.576 17.6229 113.148 17.4988C112.719 17.3747 112.324 17.1885 111.963 16.9402L112.488 15.0446Z" fill="#F8F8F8"/>
</svg>
