<svg width="36" height="36" viewBox="0 0 36 36" fill="none" xmlns="http://www.w3.org/2000/svg">
<path fill-rule="evenodd" clip-rule="evenodd" d="M35 18C35 27.3888 27.3888 35 18 35C8.61116 35 1 27.3888 1 18C1 8.61116 8.61116 1 18 1C27.3888 1 35 8.61116 35 18ZM36 18C36 27.9411 27.9411 36 18 36C8.05887 36 0 27.9411 0 18C0 8.05887 8.05887 0 18 0C27.9411 0 36 8.05887 36 18ZM26.959 14.586C26.959 20.004 22.83 26.263 15.283 26.263C13.0567 26.2636 10.8767 25.6276 9 24.43C9.32 24.47 9.648 24.486 9.976 24.486C11.8248 24.4885 13.6205 23.8685 15.074 22.726C14.2174 22.7106 13.3871 22.4275 12.6996 21.9164C12.012 21.4053 11.5016 20.6918 11.24 19.876C11.489 19.924 11.745 19.948 12.01 19.948C12.3749 19.9495 12.7383 19.901 13.09 19.804C12.1619 19.6144 11.3276 19.1103 10.7282 18.3768C10.1287 17.6433 9.80088 16.7253 9.8 15.778V15.722C10.3706 16.0361 11.0071 16.2115 11.658 16.234C10.7893 15.6528 10.1743 14.7628 9.93783 13.7446C9.70141 12.7265 9.86128 11.6566 10.385 10.752C11.4155 12.0203 12.7013 13.0576 14.1588 13.7967C15.6163 14.5357 17.2129 14.96 18.845 15.042C18.781 14.738 18.741 14.426 18.741 14.106C18.7418 13.0173 19.1746 11.9733 19.9445 11.2035C20.7143 10.4336 21.7583 10.0008 22.847 10C23.4078 9.99993 23.9626 10.115 24.4771 10.3381C24.9916 10.5612 25.4548 10.8876 25.838 11.297C26.7586 11.1184 27.6415 10.7825 28.448 10.304C28.1405 11.2556 27.498 12.0633 26.64 12.577C27.4544 12.4782 28.2496 12.2595 29 11.928C28.4489 12.7541 27.7551 13.4753 26.951 14.058C26.959 14.234 26.959 14.41 26.959 14.586Z" fill="#C6B787"/>
</svg>
